{
    "asset" : {
        "generator" : "Khronos glTF Blender I/O v1.6.16",
        "version" : "2.0"
    },
    "scene" : 0,
    "scenes" : [
        {
            "name" : "Scene",
            "nodes" : [
                0,
                1,
                2,
                3,
                4,
                5
            ]
        }
    ],
    "nodes" : [
        {
            "name" : "Camera",
            "rotation" : [
                0.5081743001937866,
                0.4871101379394531,
                -0.4513801634311676,
                0.5483962893486023
            ],
            "translation" : [
                28.598493576049805,
                6.08919620513916,
                4.054147720336914
            ]
        },
        {
            "name" : "Point",
            "rotation" : [
                0.1680089235305786,
                0.8139086961746216,
                -0.476363867521286,
                0.28705936670303345
            ],
            "translation" : [
                10.184953689575195,
                11.852370262145996,
                -11.636565208435059
            ]
        },
        {
            "name" : "Point.001",
            "translation" : [
                1.488318681716919,
                3.1263821125030518,
                1.2113797664642334
            ]
        },
        {
            "name" : "Area",
            "rotation" : [
                -0.09679128974676132,
                0.74908846616745,
                0.6524289846420288,
                0.061922214925289154
            ],
            "scale" : [
                8.459002494812012,
                8.459002494812012,
                8.459002494812012
            ],
            "translation" : [
                0,
                6.146919250488281,
                7.46910285949707
            ]
        },
        {
            "mesh" : 0,
            "name" : "Sphere",
            "scale" : [
                0.4698801636695862,
                0.4698801636695862,
                0.4698801636695862
            ],
            "translation" : [
                1.4363138675689697,
                3.2376978397369385,
                1.1628978252410889
            ]
        },
        {
            "name" : "Point.002",
            "translation" : [
                1,
                6.170000076293945,
                -4
            ]
        }
    ],
    "materials" : [
        {
            "doubleSided" : true,
            "name" : "Material.002",
            "pbrMetallicRoughness" : {}
        },
        {
            "doubleSided" : true,
            "name" : "Material.001",
            "pbrMetallicRoughness" : {
                "baseColorFactor" : [
                    0.008023194037377834,
                    0.01599629782140255,
                    0.02732088603079319,
                    1
                ],
                "metallicFactor" : 0,
                "roughnessFactor" : 0.6177777647972107
            }
        },
        {
            "doubleSided" : true,
            "name" : "Material.005",
            "pbrMetallicRoughness" : {}
        }
    ],
    "meshes" : [
        {
            "name" : "Sphere",
            "primitives" : [
                {
                    "attributes" : {
                        "POSITION" : 0,
                        "NORMAL" : 1,
                        "TEXCOORD_0" : 2
                    },
                    "indices" : 3,
                    "material" : 0
                },
                {
                    "attributes" : {
                        "POSITION" : 4,
                        "NORMAL" : 5,
                        "TEXCOORD_0" : 6
                    },
                    "indices" : 7,
                    "material" : 1
                },
                {
                    "attributes" : {
                        "POSITION" : 8,
                        "NORMAL" : 9,
                        "TEXCOORD_0" : 10
                    },
                    "indices" : 11,
                    "material" : 2
                }
            ]
        }
    ],
    "accessors" : [
        {
            "bufferView" : 0,
            "componentType" : 5126,
            "count" : 22350,
            "max" : [
                0.9995614290237427,
                1,
                0.9989038109779358
            ],
            "min" : [
                -0.9995616674423218,
                -1,
                -0.9997811317443848
            ],
            "type" : "VEC3"
        },
        {
            "bufferView" : 1,
            "componentType" : 5126,
            "count" : 22350,
            "type" : "VEC3"
        },
        {
            "bufferView" : 2,
            "componentType" : 5126,
            "count" : 22350,
            "type" : "VEC2"
        },
        {
            "bufferView" : 3,
            "componentType" : 5123,
            "count" : 33300,
            "type" : "SCALAR"
        },
        {
            "bufferView" : 4,
            "componentType" : 5126,
            "count" : 1524,
            "max" : [
                1.3376355171203613,
                6.552242755889893,
                0.4721043109893799
            ],
            "min" : [
                -6.231793403625488,
                -6.364509582519531,
                -12.371427536010742
            ],
            "type" : "VEC3"
        },
        {
            "bufferView" : 5,
            "componentType" : 5126,
            "count" : 1524,
            "type" : "VEC3"
        },
        {
            "bufferView" : 6,
            "componentType" : 5126,
            "count" : 1524,
            "type" : "VEC2"
        },
        {
            "bufferView" : 7,
            "componentType" : 5123,
            "count" : 2988,
            "type" : "SCALAR"
        },
        {
            "bufferView" : 8,
            "componentType" : 5126,
            "count" : 22350,
            "max" : [
                -0.0641133189201355,
                7.150017261505127,
                -10.324471473693848
            ],
            "min" : [
                -1.7389456033706665,
                5.474450588226318,
                -11.998936653137207
            ],
            "type" : "VEC3"
        },
        {
            "bufferView" : 9,
            "componentType" : 5126,
            "count" : 22350,
            "type" : "VEC3"
        },
        {
            "bufferView" : 10,
            "componentType" : 5126,
            "count" : 22350,
            "type" : "VEC2"
        },
        {
            "bufferView" : 11,
            "componentType" : 5123,
            "count" : 33300,
            "type" : "SCALAR"
        }
    ],
    "bufferViews" : [
        {
            "buffer" : 0,
            "byteLength" : 268200,
            "byteOffset" : 0
        },
        {
            "buffer" : 0,
            "byteLength" : 268200,
            "byteOffset" : 268200
        },
        {
            "buffer" : 0,
            "byteLength" : 178800,
            "byteOffset" : 536400
        },
        {
            "buffer" : 0,
            "byteLength" : 66600,
            "byteOffset" : 715200
        },
        {
            "buffer" : 0,
            "byteLength" : 18288,
            "byteOffset" : 781800
        },
        {
            "buffer" : 0,
            "byteLength" : 18288,
            "byteOffset" : 800088
        },
        {
            "buffer" : 0,
            "byteLength" : 12192,
            "byteOffset" : 818376
        },
        {
            "buffer" : 0,
            "byteLength" : 5976,
            "byteOffset" : 830568
        },
        {
            "buffer" : 0,
            "byteLength" : 268200,
            "byteOffset" : 836544
        },
        {
            "buffer" : 0,
            "byteLength" : 268200,
            "byteOffset" : 1104744
        },
        {
            "buffer" : 0,
            "byteLength" : 178800,
            "byteOffset" : 1372944
        },
        {
            "buffer" : 0,
            "byteLength" : 66600,
            "byteOffset" : 1551744
        }
    ],
    "buffers" : [
        {
            "byteLength" : 1618344,
            "uri" : "data:application/octet-stream;base64,"
        }
    ]
}
