<svg xmlns="http://www.w3.org/2000/svg" viewBox="0 0 413.27 414.02"><defs><style>.cls-1{fill:#fff;}</style></defs><g id="Layer_2" data-name="Layer 2"><g id="Layer_1-2" data-name="Layer 1"><path d="M149.29,213.54c1,.14,2.24-1.22,6.65-2a27,27,0,0,1,6.92-.28l1.65-1c17.05-59,43.69-97.83,61.27-119.45C248.6,62.77,266,52.5,279.46,45.67c21-10.63,45.85-15,68.48-8.47a76.81,76.81,0,0,1,47,109.16c-2.74,5.29-13.86,22.23-32.26,24.15-19.7,2.05-35.06-14.76-39.55-19.67-5.64-6.17-8.73-12.13-13.15-20.67a158.27,158.27,0,0,1-11.68-29.34,212.79,212.79,0,0,0-53.14,30.28,216.59,216.59,0,0,0-63.07,80.22,68.68,68.68,0,0,1,33.84,10.43c25.82,16.4,30.79,44.95,31.57,49.87,17.76,6.62,28.14,26.66,27.4,45.6s-10.79,36.49-23.7,50.36c-31.31,33.64-81.39,48.54-126,37.48-24-5.95-47.26-20.05-58.12-42.28s-5.61-52.93,15.47-65.88a57.64,57.64,0,0,1,36.67-79.28l.91-1c1.62-9-2-18.26-7.61-25.42S99.35,178.63,91.88,173.4c-18.64-13.08-37.72-25.93-53.31-42.53s-27.65-37.61-29-60.35,9.77-47,30.3-56.84c29.71-14.26,61.59,9.65,65.58,12.66C127.8,43.18,134.67,67.39,140,87.07,155.94,146.42,142.88,212.6,149.29,213.54Z"/><path class="cls-1" d="M390.44,134.35c-.34,1.08-.81,2.11-1.24,3.16-.22.52-.42,1.06-.66,1.57l-.74,1.52c9.37-19.84,8.7-45.92-3.44-65.22A65.05,65.05,0,0,1,391,92.91l.5,2.32.38,2.36.19,1.18.13,1.19.27,2.38a75,75,0,0,1,.14,9.6,72.87,72.87,0,0,1-3.4,18.78,68.47,68.47,0,0,1-3.52,8.72l-.51,1.05c-.17.35-.34.72-.48.94a9.31,9.31,0,0,1-.47.83c-.17.29-.33.58-.53.88-.74,1.2-1.61,2.4-2.48,3.56a38.11,38.11,0,0,1-12.13,10.75,23.18,23.18,0,0,1-6.66,2.46l-.85.2-.86.08c-.57.06-1.14.17-1.71.21a27.35,27.35,0,0,1-3.5-.08,28,28,0,0,1-3.56-.51c-.59-.12-1.19-.32-1.79-.46l-.9-.23-.9-.32a45,45,0,0,1-7.09-3.1,66,66,0,0,1-6.7-4.15c-2.16-1.5-4.2-3.07-6.25-4.74-.21-1.17-1.77-3.54-3.67-7.06-1-1.76-2-3.84-3.15-6.2l-3.68-7.75c-2.48-5.21-4.8-10.74-6.63-15.67-.57-1.54-1.11-3-1.63-4.45-.83-2.33-1.54-4.59-2.21-6.71l-1.83-5.86-.79-2.51-.36-1.13a8.23,8.23,0,0,1-.32-1.12c-4,1.75-6.3,2.81-6.59,3-2.55,1.14-5.08,2.27-7.56,3.44-1.23.59-2.49,1.14-3.69,1.77l-1.77.86-1,.52q-3.94,2.09-7.83,4.31-7.77,4.45-15.26,9.49A246.07,246.07,0,0,1,281.58,99.1a246.07,246.07,0,0,0-21.23,12.67,232.51,232.51,0,0,0-67.08,68.9c-3,4.66-5.77,9.42-8.38,14.33-.67,1.21-1.32,2.44-1.95,3.68l-1.09,2.12-1.44,3c-1,2-1.95,4.07-2.88,6.09l-1.41,3a10,10,0,0,0-1.07,2.82c3.5.16,7.15.33,10.6.57,1.68.18,3.4.32,5,.62,1,.16,1.84.35,2.76.53a65.34,65.34,0,0,1,10.51,3.29,58.74,58.74,0,0,1,18.4,12,51.84,51.84,0,0,1,3.81,4c.6.71,1.22,1.41,1.81,2.13l1.66,2.25.83,1.12.76,1.18,1.51,2.36c.47.81.91,1.64,1.37,2.45l.69,1.23.62,1.28a71.94,71.94,0,0,1,4.22,10.5c.29.9.56,1.81.8,2.72s.5,1.83.71,2.75c.1.46.23.92.31,1.38l.36,1.74q.45,2.67.86,5.38c1.71.79,3.45,1.54,5.19,2.32l.32.14a1.2,1.2,0,0,1,.26.13l.31.17.61.35,1.22.7a35.16,35.16,0,0,1,4.53,3.39,12,12,0,0,1,1.38,1.3c.46.47.94.93,1.41,1.43a41.82,41.82,0,0,1,2.69,3.37,45.49,45.49,0,0,1,2.54,4,49.57,49.57,0,0,1,2.18,4.57,45.93,45.93,0,0,1,3,10.61c.12,1,.24,1.92.36,2.9l.15,3c0,1,0,2,0,3s-.17,2.07-.25,3.11a58,58,0,0,1-2.93,12.75,72.65,72.65,0,0,1-5.95,12.63A101.26,101.26,0,0,1,240.83,368a123.45,123.45,0,0,1-24.33,17.32A131.85,131.85,0,0,1,190.37,396a133.69,133.69,0,0,1-24.43,4.44l-5.46.32-1.31.07c-.43,0-.87,0-1.29,0l-2.52,0c-1.64,0-3.23,0-4.74-.07l-4.32-.33a120.94,120.94,0,0,1-18.87-3c5.19,1.14,7.77,1.81,10.43,2.11l4.29.65c1.65.24,3.65.32,6.32.56l-5-.2c-1.66-.11-3.29-.35-4.93-.51l-2.45-.27-1.22-.13-1.2-.22-4.77-.88a98.92,98.92,0,0,1-18.14-5.3c-11.49-4.57-21.74-11.17-29.55-19.7.58.84,1.15,1.43,1.63,2.06s1,1.24,1.6,2l2.49,2.61c.52.56,1.18,1.1,1.9,1.76s1.51,1.4,2.5,2.15A71,71,0,0,1,82.44,376c-.51-.46-1.08-.94-1.63-1.5l-1.72-1.81c-1.25-1.25-2.35-2.82-3.64-4.4A61.48,61.48,0,0,1,72,362.92a44,44,0,0,1-3-6,52.53,52.53,0,0,1-3.26-12.82,58.5,58.5,0,0,1-.29-10.93c0,.65.13.55.26-.09s.3-1.8.58-3.28a53.2,53.2,0,0,1,3.18-10.91c-.47.95-1,1.91-1.37,2.91a44.73,44.73,0,0,1,5.11-10.5,40.73,40.73,0,0,1,3.63-4.66c.68-.72,1.35-1.45,2.09-2.11.35-.34.71-.68,1.1-1l.57-.48.28-.24.26-.22.26-.2c1.41-1,2.82-2,4.26-2.95l1.08-.71.54-.36c0-.17-.14-.39-.2-.58l-1-2.39c-.66-1.56-1.4-3.29-1.89-4.74-.38-1-.61-2-.93-2.95a55,55,0,0,1,2-35.86A52.75,52.75,0,0,1,98,233.69a37.48,37.48,0,0,1,6.89-5.13,54.22,54.22,0,0,1,11.83-6.13l.39-.15c.34-.13.48-.16.72-.24l1.24-.49c.82-.33,1.62-.7,2.4-1.09a2.36,2.36,0,0,0,.55-.33l.43-.5c.27-.34.59-.66.83-1,.23-.84.52-1.64.69-2.5l.26-2.71c0-.22,0-.46,0-.69v-.61c0-.34,0-.69,0-1a31.78,31.78,0,0,0-.42-4c.21.6.19-.79-.25-2.91a37.4,37.4,0,0,0-2.34-7.23c-1-2.31-2.05-4.14-2.29-4.61s.46.31,2.26,3.7a49.48,49.48,0,0,0-4.86-7.54A64.84,64.84,0,0,0,110.5,182a122.33,122.33,0,0,0-12.94-10.62C88.86,165,80.34,159,72.08,153.15c-14.24-11-28-23-38.53-37.38a104.67,104.67,0,0,1-13-23.14A80,80,0,0,1,16.63,80a65.12,65.12,0,0,1-1.57-13,63.6,63.6,0,0,1,1.18-13,59,59,0,0,1,4-12.45A49.67,49.67,0,0,1,36,21.45c.89-.6,1.75-1.24,2.65-1.82l2.79-1.58c.94-.52,1.93-.92,2.89-1.39s2-.81,3-1.13a43.06,43.06,0,0,1,12.7-2.18c8.74-.21,17.64,2,26,5.53-.49-.35-1-.68-1.5-1a100,100,0,0,1,16.75,8.56,75.07,75.07,0,0,1,14.48,12,76.06,76.06,0,0,1,11.49,16.37,110.81,110.81,0,0,1,8.18,20.82c1,2.68,1.91,5.54,2.84,8.5s1.85,6,2.69,9.09c1.68,6.19,3.06,12.55,4.16,18.54,2.2,12,3.29,22.4,4.2,26.93.76,13.27.86,22.56.92,31.78,0,4.61,0,9.2-.12,14.26s-.25,10.59-.3,17c.17-1.65.27-.91.35.91a71.27,71.27,0,0,0,.5,7.14,8.1,8.1,0,0,0,.34,1.41.53.53,0,0,1,.06.14s0,0,0,0,0,0,0,0l-.17.09a3.92,3.92,0,0,0-.62.41,1.38,1.38,0,0,0-.4.28l-.17.18c-.05.06-.07.06-.1.1a.49.49,0,0,0-.14.22h0c-.28,1.91.38-2.59.31-2.13h.12l.2,0,.39,0,.71.07,1.07.1c1.09.08.71-.07-2.43-.64-.74,5-.21,1.4-.37,2.52h0a.37.37,0,0,1,.05-.11.63.63,0,0,1,.15-.17,4,4,0,0,1,.29-.29,1.88,1.88,0,0,1,.36-.24,4.3,4.3,0,0,1,.52-.35,4.67,4.67,0,0,1,.56-.26l.14-.07h0v0c0-.24-.08-.48-.11-.71-.09-.69-.12-1.5-.15-2.26,0-1.54,0-3,0-4.32.09-2.68.17-4.83.24-6.9.16-4.18.34-8.06,1-15.37l-.22.43a463.94,463.94,0,0,0,.43-51.7c-.49-8.67-1.31-17.37-2.62-26q-1-6.51-2.33-13c-.46-2.15-1-4.33-1.47-6.45s-1-4.19-1.57-6.31c-1.1-4.24-2.28-8.51-3.68-12.78a133.64,133.64,0,0,0-4.9-12.72A90,90,0,0,0,121,29.37a84.6,84.6,0,0,0-10.42-9.78A105.82,105.82,0,0,0,98.9,11.68,89.3,89.3,0,0,0,72.24,1.13a72.81,72.81,0,0,0-10-1.1A62.57,62.57,0,0,0,51.86.58a55.37,55.37,0,0,0-20,7,58.53,58.53,0,0,0-16,13.85A69.24,69.24,0,0,0,5.29,39.46,75,75,0,0,0,.37,59.64,72.82,72.82,0,0,0,.06,70.09c0,1.76.26,3.44.39,5.15s.46,3.4.7,5.09a96.8,96.8,0,0,0,15,36.75,128,128,0,0,0,13,16.4,165.53,165.53,0,0,0,15.15,14.17C54.84,156.43,66.09,163.88,77,171c5.45,3.54,11,7,16.1,10.44a79,79,0,0,1,13.62,11c1,1,1.84,2.05,2.68,3.09a37.39,37.39,0,0,1,2.25,3.28,30.8,30.8,0,0,1,3.21,7,24.65,24.65,0,0,1,.84,3.6l.13.9.07.89a5.32,5.32,0,0,1,0,.89v.51q0,.39,0,.78c0,.25,0,.54-.23.71s-.43.25-.66.36l-.37.13-.18.06-.12,0a76.36,76.36,0,0,0-13.58,6.84,64.53,64.53,0,0,0-10.94,8.69A65.4,65.4,0,0,0,80,244a62.16,62.16,0,0,0-6,16.88,64.26,64.26,0,0,0-.94,18.52,65.7,65.7,0,0,0,1.62,9.36c.17.78.42,1.54.64,2.31s.43,1.54.72,2.3l.31.86.27.65c0,.11.13.23.11.32l-.29.19c-.2.13-.4.27-.58.41l-.29.21-.68.57c-.64.53-1.28,1.07-1.88,1.65a46.47,46.47,0,0,0-6.53,7.56,53.89,53.89,0,0,0-8,17.93,61.67,61.67,0,0,0,2.63,37.59c-.36-.87-.65-1.73-.84-2.3a57.87,57.87,0,0,0,4,8.79,44.25,44.25,0,0,0,2.31,4c.4.64.78,1.29,1.2,1.91l1.3,1.82A80.39,80.39,0,0,0,80.54,388.3a96.31,96.31,0,0,0,29.77,17.92c0-.23,3.58,1.16,5.4,1.62a52.16,52.16,0,0,0,7.22,2.32c2.09.56,4.62,1,7.46,1.64l2.2.46,2.34.32,5,.67c1.73.29,3.56.32,5.44.46s3.83.28,5.82.31c4-.06,8.19.06,12.51-.38,4.33-.21,8.74-.94,13.23-1.57,4.45-.91,9-1.72,13.41-3.07,2.22-.62,4.46-1.19,6.62-2s4.35-1.48,6.48-2.29l6.26-2.63,1.55-.65,1.49-.74,3-1.47,2.92-1.46c1-.47,1.86-1.06,2.79-1.58l5.38-3.14,4.93-3.31,2.37-1.6c.75-.55,1.47-1.13,2.19-1.68l4.13-3.21a24.5,24.5,0,0,0,1.88-1.58l1.75-1.56,3.23-2.87c1-.89,1.86-1.85,2.7-2.67l4.09-4.13c1-1.11,1.74-1.89,2.13-2.28,1.66-1.95,3.31-4,5-6.2a94.17,94.17,0,0,0,13.52-23.65,64,64,0,0,0,4.4-27.37,56,56,0,0,0-8.75-26.32,48.19,48.19,0,0,0-9.23-10.47L259.75,273c-.45-.37-.95-.68-1.43-1a30.19,30.19,0,0,0-2.94-1.91l-1.53-.86-.77-.43-.19-.1-.08,0-.12-.06a6.33,6.33,0,0,1-.9-.47l-.12-.83,0-.19-.15-.72c-.1-.48-.2-1-.32-1.43-.44-1.9-1-3.76-1.52-5.61a89.18,89.18,0,0,0-4.11-10.65,75.74,75.74,0,0,0-12.09-18.4l-1.31-1.38c-.44-.47-.94-.88-1.4-1.32L227.85,225l-3.08-2.41-1.54-1.19-1.62-1.06a61.79,61.79,0,0,0-12.52-6.66,41.55,41.55,0,0,0-8.49-3.17c-1.27-.32-2.58-.65-4.19-1-.79-.19-1.67-.36-2.63-.55l-1.52-.29-.73-.13a25.26,25.26,0,0,0-2.63-.68l-.14,0-.06,0s0-.05,0-.07l.2-.33c.13-.2.25-.4.37-.6l.66-1.05.55-.88c0-.07.09-.13.13-.21l.18-.31.63-1.11c1.61-2.89,2.93-5.1,3.71-6.58,1.67-2.91,1.25-2.86-1.58,1.59A206,206,0,0,1,226,154.75a212.72,212.72,0,0,1,16.86-16,57.83,57.83,0,0,1,11.2-7.85,112.26,112.26,0,0,1,12.15-8c2.71-1.47,5.49-3,13.39-7,1-.31,3.7-1.66,7.4-3.43l2.95-1.39.66-.31c.1,0,.19-.12.29-.16l.6-.31c.82-.43,1.76-.91,2.75-1.34.12-.14.11,0,.14,0l.07.18.15.38.32.78c.23.54.46,1.07.68,1.6l.18.41s0,.07,0,.08l.1.26.2.51.8,2c.53,1.33,1.06,2.6,1.57,3.79,2,4.77,3.82,8.32,4.35,9.62l-1.39-2.75c1.1,2.49,2.2,4.87,3.28,7.14l3.09,6.51A84.67,84.67,0,0,0,315,152.14c.71,1,1.44,2,2.21,2.93l1.1,1.37,1.12,1.34c1.53,1.79,3.15,3.61,4.94,5.35A60.43,60.43,0,0,0,337.34,173,48.43,48.43,0,0,0,349.25,178a29.09,29.09,0,0,0,3.29.72l1.67.31c.55.1,1.13.12,1.7.17,1.14.09,2.28.22,3.44.23l3.47-.1a43.52,43.52,0,0,0,13.42-3.2,48.94,48.94,0,0,0,11.54-6.91,63.49,63.49,0,0,0,13.09-14.34c.6-.9,1.19-1.85,1.77-2.84.28-.51.61-1.07.84-1.53l.69-1.4c.46-.94.94-1.87,1.38-2.81l1.22-2.87.6-1.44.53-1.47,1.05-2.93a88,88,0,0,0-2.09-60.12A88.27,88.27,0,0,0,378.53,41c-.28.13.24.68,1.18,1.45s2.22,1.87,3.55,3c2.61,2.25,5.15,4.83,4.84,5.6L387,49.79l-1.19-1.13-2.37-2.25c-1.67-1.41-3.27-2.9-5-4.2a89,89,0,0,0-10.92-7.34,91.54,91.54,0,0,0-12-5.69c-1-.39-2.1-.74-3.15-1.11l-1.59-.54-1.6-.46-3.21-.9-3.25-.73L341,25.09l-1.64-.27-3.29-.54-3.3-.36-1.65-.17-1.66-.09a98.68,98.68,0,0,0-13.21.05,106.54,106.54,0,0,0-25.61,5.17c-1.51.44-3.11.87-4.67,1.4s-3.14,1-4.58,1.51c-2.91,1-5.37,2-6.74,2.44a55.13,55.13,0,0,0-5.07,2.53,16,16,0,0,0-2.16,1.4,37.61,37.61,0,0,1-5.14,3.36l-1.45-.27c-4.78,3.52-8.43,5.83-12,8.19a63.27,63.27,0,0,0-10.79,8.64c-.18.68-3,3.47-5.73,6.21-.42-.29-2.48,1.86-4.39,4s-3.69,4.22-3.85,3.7l0,.14c-1.49,1.74-2.5,3-4.44,5.06-.59.91-2.56,3.66-5,7.39s-5.44,8.46-8.32,13.23c-5.73,9.57-10.69,19.47-11.59,21.44l-1.13,1.66c-2.95,5.17-3.5,7.78-1.74,4.8l-3.51,6.41.34-.77c-1.17,2.11-2.23,4.3-3.34,6.44-.68,1.16-1.7,2.34-1.11.31-.81,1.91-1.62,3.95-2.49,6s-1.82,4-2.69,5.84c1.25-2.57,2.7-5.24,4.16-8s3.12-5.54,4.72-8.35,3.4-5.53,5.12-8.22,3.5-5.27,5.26-7.69c-1.17,2.17-2.89,5.14-4.71,8.12s-3.53,6.08-4.72,8.46c-1.69,2.69-4.17,6.86-6.6,11.6l-1.87,3.6-1.8,3.72c-1.18,2.49-2.38,4.93-3.37,7.27-.75,2.1-.62,3.83-2.74,8.41-1.35,2.11-2,5.36-3.7,9.18.62-2.34,1.44-4.59,2.24-6.85s1.66-4.51,2.6-6.77c-.48.25-1.69,3-2.84,6.14s-2.46,6.66-3.09,8.49c-.19.9-1,3.58-2.07,6.75s-2,6.89-2.75,9.75c.1-1.32-.3-.2-.88,1.67s-1.19,4.53-1.72,6.2c-.12.48-.24,1-.34,1.38l-.13.17c-.1.08,0,.27,0,.39s.12.4.2.26c.12.2.14,0,.31-.3l.18-.21a.69.69,0,0,0,.09-.16c.06-.2.11-.4.17-.6.22-.81.46-1.67.68-2.5.89-3.32,1.75-6.09,1.31-3.31a37.21,37.21,0,0,0-1.22,4.13c-.13.5-.26,1-.4,1.55-.06.27-.13.53-.2.81a1.87,1.87,0,0,1-.12.27,2.32,2.32,0,0,0-.25,1.05l-.37.23a.75.75,0,0,1-.17.1h-.19c.12.39,1.08-.09.3.47l-.36,0a4.7,4.7,0,0,0-.65,0l-1.23.1a31.26,31.26,0,0,0-3.52.54c-1.12.24-2.19.54-3.16.85s-1.85.67-2.34.8a14.65,14.65,0,0,1,1.93-.81,24.55,24.55,0,0,1,2.61-.75c-1.3.33-.82.11.77-.34a28.81,28.81,0,0,1,3.12-.64l1-.14.49,0,.16,0c.2,0,.4-.08.6-.1s.31,0,.44-.11l.35-.33,0-.57c0-.2.06-.28.08-.42s0-.07.07-.24l.15-.81c.1-.54.2-1.08.29-1.6.39-2.1.73-4,1-5.57.63-3,.9-4.48.36-2.34.2-.44-.14,1.2-.67,4-.25,1.37-.56,3-.89,4.81-.09.44-.18.9-.27,1.36l0,.18,0,.08v0l0,.07,0,.16c-.12.18,0,.55,0,.87l-.35.31c-.12.11-.28,0-.43.09l-.42.06-.21,0-.12,0-.4,0c-1.06.11-2.09.27-3,.46a26.06,26.06,0,0,0-5.09,1.56c-.67.29-1.24.57-1.51.7l-.11.07s0,0,0,0l.22.64c.13.41.26.91.31,1a9.69,9.69,0,0,1,.23,1,1.41,1.41,0,0,1,0,.28.71.71,0,0,0,0,.15.38.38,0,0,1,0,.1v0c-.11.72.91-6.26.48-3.3h-.3s0,0,0,0l.1,0h.14c-.21,1.46.48-3.25-.47,3.26a4.62,4.62,0,0,0-.27-1.65l0-.14-.07-.26-.15-.49a6.14,6.14,0,0,0-.21-.6h0c.07,0,.15,0,.15,0s-.05.08-.08.12-.06,0,0,.06h0l.05.13.16.54.15.51.09.28c.11.38.18.84.21,1a2.83,2.83,0,0,1,0,.29v.12a.28.28,0,0,1,0,.09v0c-.09.62.78-5.38.41-2.84h0s-.06,0-.06,0,0,0,.06,0h0c-.8,5.5-.22,1.53-.4,2.75h0v-.2a1.93,1.93,0,0,0-.05-.45s0-.26-.08-.43-.09-.36-.15-.55l0-.15-.08-.29-.17-.57h0l.17-.05c.48-.26,1.3-.68,2.06-1a23.92,23.92,0,0,1,2.36-.86,23.23,23.23,0,0,1,3.77-.5c.51,0,1,0,1.36,0h.27l.12,0,.2,0c.48.14.6.31.12.41h-1c-.23,0-.21,0,0-.09.69-.13,1.07-.26,1.77-.36.21-.06.45,0,.65-.13s.38-.34.58-.52l0-.66V206l.07-.28.13-.56c.08-.46.16-.92.25-1.38.33-1.81.64-3.54.88-4.9.51-2.74.81-4,.28-1.91l1-2.89c-.34,1.57-1.07,4.4-1.74,7.26-.18.72-.35,1.43-.53,2.12l-.26,1a3.59,3.59,0,0,1-.23.74c-.1.2-.22.36-.29.53a3.56,3.56,0,0,1-.15.46.45.45,0,0,1,.08.27,1,1,0,0,1-1,.54l-.75.06-.83.07-1.17.14c-.48,0-1,.09-1.43.15-1,.2-2.17.45-3.27.78a23.27,23.27,0,0,0-2.87,1.08c-.34.16-.62.29-.68.33s-.12-.34.24.89l.08.3.05.16.08.26a3.71,3.71,0,0,1,.1.44,1.69,1.69,0,0,0,.07.33s0,0,0-.14a5.3,5.3,0,0,0-.24-.94l-.07-.26-.1-.35-.12-.37,0-.1h0s0,0,.05,0l.75-.31c.3-.12.63-.26.94-.37.62-.23,1.21-.42,1.73-.56a16.3,16.3,0,0,1,2.51-.51c1.26-.17,1.78-.1,1.8,0s-1.87.82-3.71,1.71a16.57,16.57,0,0,0-2.41,1.4c-.61.45-.87.73-.85.87s.32.16,1.37-.2a30.63,30.63,0,0,1,5.41-1.27c-1.67.14-2.62.31-3,.33s-.19-.09.43-.29a19.7,19.7,0,0,1,3-.67c.66-.1,1.43-.18,2.18-.23.6,0,1.22-.06,1.87,0l.62,0c.21,0,.44.1.61-.07l1.11-.69c.25-.93.51-1.89.8-2.76a5.52,5.52,0,0,0,.5-1.07q.34-.84.84-2.22c.66-1.82,1.52-4.33,2.65-7.39,1.72-5.4.8-3.26,1-4.34.27-.74.61-1.64,1-2.57s.77-1.86,1.12-2.69c.71-1.65,1.28-2.83,1.33-2.39a28.71,28.71,0,0,1,2-5.5,61.52,61.52,0,0,0,2.59-6c1.5-4.42-.33.21.66-3,1.43-3.2,3-7.08,4.78-10.72s3.37-7.12,4.7-9.57c1.37-1.73,5.06-7.18,3.56-2.6-4.87,9.38.77-4.13-4,5.77,3-3.81-4,8.9-4,11.07.88-1.52,2.14-3.85,3.45-6.49.64-1.33,1.32-2.73,2-4.12l2-4.11-.66,1c2.15-4.76,7-14,10.41-18.59-.32,1.35,1.18-.63-.66,2.73l1.83-3.08,1.91-3c.37-.84.75-1.71-.41,0a38.94,38.94,0,0,1,2.47-4.32c.9-1.32,1.8-2.53,2.61-3.55.37-.23,5.22-8.43,10.36-16.21s10.54-15.11,10.29-14.56a41.22,41.22,0,0,1,4-4.22,37.58,37.58,0,0,0,3.74-4.29,9.75,9.75,0,0,0-1.36,1.41l-3.5,4.18c-1.42,1.75-3,3.83-4.73,6s-3.43,4.59-5.1,7c-6.77,9.4-12.26,18.69-10.43,15.8,1.38-1.72,9.22-14.08,18.17-25.53,4.44-5.73,9.12-11.25,13-15.3s6.88-6.7,7.63-7.07c1.44-1.26,3-2.68,4.13-3.71s1.76-1.73,1.25-1.65c5.26-3.8-1,1.92,3-.51,0-.12-.45,0,.73-.84s2.61-1.4,3.93-2.07a63.28,63.28,0,0,1,6.69-4.76c2.5-1.54,5.19-3.06,8-4.48,5.54-2.9,11.22-5.4,16-7.61C290.61,42.63,287.73,44.7,282,48l-1.17.26c-.79.56-5.58,3.28-5.17,3.68,5.75-2.73,10.46-5.14,16.44-7.94,1.18-.33,2.58-.61,3.52-.79-.05-.06-.16-.08-.16-.16,2.13-.39,1.92-.27,1.25.18a2.22,2.22,0,0,1-.39.25c2.08.13,7.75-2,14.59-3.43l2.6-.55c.88-.16,1.77-.29,2.67-.44,1.79-.32,3.6-.46,5.37-.64s3.5-.17,5.14-.16a41.68,41.68,0,0,1,4.58.35c1.65,0,1.73,0,1.92-.09a1.82,1.82,0,0,1,.56-.07,11.89,11.89,0,0,1,2,.05,74.52,74.52,0,0,1,14.81,4.24,79,79,0,0,1,13.83,7.31c3.49,1.53,3.95,1.49.4-1.59,1.29.81,2.5,1.72,3.75,2.57s2.41,1.85,3.58,2.81c-3.81-1.81-.61,1,2.15,4a25.83,25.83,0,0,1,3.11,3.88c.47.84.14,1-1.67-.31,1.53,2.07,5,5.86,8,9.67a3,3,0,0,1,1.49.89,20.66,20.66,0,0,1,3.43,4.74l1.16,2.51c.33.7.54,1.32.76,1.84.41,1,.72,1.75,1,2.43.42,1.38.94,2.53,1.77,6,0,1.73-1-.64-1.33-.22a24.72,24.72,0,0,1,2.18,9.66c0,2.29,0,4.45.32,9.44a72.57,72.57,0,0,1-.14,11.72c0,1-.18,1.92-.26,2.77s-.14,1.63-.2,2.29c-.15,1.3-.16,2.17.05,2.29a24.11,24.11,0,0,1-.73,2.74c-.24.78-.45,1.44-.65,2a13,13,0,0,1-1.07,2.21C390.91,135.19,390.65,134.87,390.44,134.35Z"/></g></g></svg>