<svg xmlns="http://www.w3.org/2000/svg" viewBox="0 0 468.03 468.88"><defs><style>.cls-1{fill:#fff;}</style></defs><g id="Layer_2" data-name="Layer 2"><g id="Layer_1-2" data-name="Layer 1"><path class="cls-1" d="M442.18,152.15c-.39,1.23-.92,2.4-1.41,3.59-.25.59-.47,1.19-.74,1.77l-.84,1.73c10.61-22.48,9.85-52-3.89-73.87a74,74,0,0,1,7.49,19.85l.56,2.63.43,2.67.22,1.34.15,1.35.3,2.69a84,84,0,0,1,.17,10.88A82.31,82.31,0,0,1,440.76,148a76.06,76.06,0,0,1-4,9.88l-.58,1.18c-.19.4-.39.82-.54,1.08s-.32.59-.53.93-.38.66-.61,1c-.84,1.36-1.82,2.72-2.8,4A43.37,43.37,0,0,1,418,178.32a26.39,26.39,0,0,1-7.54,2.78l-1,.23-1,.09c-.65.06-1.29.19-1.94.23a29.21,29.21,0,0,1-4-.09,31.76,31.76,0,0,1-4-.57c-.68-.14-1.35-.36-2-.53l-1-.26-1-.36a48.7,48.7,0,0,1-8-3.51,70.61,70.61,0,0,1-7.6-4.7c-2.45-1.7-4.75-3.47-7.07-5.37-.24-1.32-2-4-4.16-8-1.09-2-2.28-4.35-3.57-7l-4.17-8.79c-2.81-5.89-5.43-12.15-7.51-17.74-.64-1.74-1.25-3.43-1.84-5-.95-2.64-1.74-5.21-2.5-7.6L346,105.45c-.32-1-.61-1.94-.89-2.84l-.41-1.28a10.77,10.77,0,0,1-.36-1.28c-4.51,2-7.14,3.19-7.47,3.43-2.89,1.3-5.75,2.58-8.55,3.91-1.4.66-2.82,1.29-4.19,2l-2,1L321,111q-4.47,2.35-8.87,4.88-8.79,5.06-17.28,10.75a276.79,276.79,0,0,1,24-14.35,276.79,276.79,0,0,0-24,14.35,263.5,263.5,0,0,0-76,78c-3.33,5.28-6.53,10.67-9.49,16.23-.76,1.37-1.49,2.77-2.2,4.17l-1.24,2.4-1.63,3.45c-1.09,2.3-2.22,4.61-3.27,6.9l-1.59,3.45a10.93,10.93,0,0,0-1.21,3.19c4,.18,8.09.37,12,.64,1.89.21,3.84.36,5.64.71l.84.14.76.15,1.53.31a72.94,72.94,0,0,1,11.9,3.72,66.76,66.76,0,0,1,20.84,13.63,60.4,60.4,0,0,1,4.32,4.58c.68.8,1.38,1.58,2,2.4l1.88,2.55.94,1.27.86,1.33,1.71,2.68c.54.91,1,1.85,1.56,2.78l.78,1.39.69,1.44a80.78,80.78,0,0,1,4.78,11.9l.49,1.53.43,1.55c.3,1,.56,2.07.8,3.11.12.52.25,1,.35,1.56l.4,2q.52,3,1,6.08c1.93.9,3.91,1.75,5.88,2.63l.36.17a1.44,1.44,0,0,1,.3.14l.34.2.69.39,1.39.79c.92.53,1.75,1.22,2.64,1.81a9.14,9.14,0,0,1,1.26,1l1.23,1a16.64,16.64,0,0,1,1.57,1.48c.51.52,1.06,1,1.59,1.61,1,1.22,2.11,2.39,3.05,3.82a50.78,50.78,0,0,1,2.88,4.48c.83,1.65,1.75,3.32,2.47,5.17a52.42,52.42,0,0,1,3.39,12c.13,1.08.27,2.18.4,3.29l.18,3.36c0,1.13,0,2.26,0,3.41s-.19,2.34-.28,3.53a65.65,65.65,0,0,1-3.32,14.44,82.74,82.74,0,0,1-6.74,14.3,114.65,114.65,0,0,1-21.27,25.84,139.89,139.89,0,0,1-27.55,19.62A149.27,149.27,0,0,1,215.6,448.5a152,152,0,0,1-27.67,5l-6.18.36-1.49.08c-.49,0-1,0-1.46,0l-2.85,0c-1.86,0-3.66,0-5.37-.07l-4.9-.38a137.58,137.58,0,0,1-21.37-3.41c5.88,1.29,8.81,2.05,11.82,2.4l4.85.73c.93.18,2,.21,3.15.31l4,.33-5.68-.23c-1.88-.12-3.73-.4-5.58-.58l-2.77-.3-1.39-.15-1.36-.25-5.41-1a113.28,113.28,0,0,1-20.54-6c-13-5.18-24.62-12.66-33.46-22.31.65,1,1.3,1.62,1.84,2.34s1.11,1.4,1.82,2.22,1.62,1.73,2.82,3c.58.63,1.33,1.24,2.14,2s1.71,1.59,2.84,2.43a80.15,80.15,0,0,1-10-9.14c-.57-.52-1.22-1.06-1.85-1.69l-1.93-2.05-1-1.12c-.35-.39-.67-.82-1-1.23l-2.08-2.63A70.07,70.07,0,0,1,81.54,411a49.9,49.9,0,0,1-3.35-6.8A59.15,59.15,0,0,1,74.5,389.7a66.74,66.74,0,0,1-.34-12.38c0,.73.15.62.31-.1s.33-2,.65-3.72a60.31,60.31,0,0,1,3.6-12.36c-.53,1.09-1.09,2.17-1.55,3.3.32-1.05.76-2.05,1.14-3.09s.84-2,1.35-3a47.42,47.42,0,0,1,3.3-5.79,46.42,46.42,0,0,1,4.11-5.28c.77-.81,1.53-1.64,2.36-2.38.41-.39.81-.78,1.25-1.13l.64-.54.32-.27.3-.25.29-.22c1.6-1.12,3.19-2.29,4.83-3.34l1.22-.81.61-.41c.09,0,0-.1,0-.15l-.07-.17-.14-.34-1.15-2.71-1.14-2.72c-.39-.9-.71-1.86-1-2.64-.43-1.08-.69-2.23-1-3.34A61,61,0,0,1,92,312a61.75,61.75,0,0,1,4.56-26.81A59.66,59.66,0,0,1,111,264.65a42.71,42.71,0,0,1,7.8-5.8,61.52,61.52,0,0,1,13.4-6.94l.44-.17.26-.1.19-.06.37-.12c.47-.17.94-.36,1.4-.55.93-.38,1.84-.8,2.72-1.24a2.57,2.57,0,0,0,.62-.36l.49-.57c.31-.39.67-.75.94-1.15.26-1,.59-1.86.79-2.83l.29-3.07c0-.25,0-.52,0-.78v-.69a11.2,11.2,0,0,0,0-1.16,38.83,38.83,0,0,0-.47-4.58c.13.34.16.12.12-.49a19.68,19.68,0,0,0-.41-2.8,42.25,42.25,0,0,0-2.65-8.19c-1.14-2.61-2.33-4.68-2.6-5.22s.52.35,2.56,4.19a55.43,55.43,0,0,0-5.5-8.53,71.69,71.69,0,0,0-6.65-7.33,140.47,140.47,0,0,0-14.65-12c-9.85-7.16-19.51-14-28.86-20.63-8.09-6.23-16-12.74-23.38-19.71A166.58,166.58,0,0,1,38,131.12a119.41,119.41,0,0,1-14.79-26.21,90.11,90.11,0,0,1-4.37-14.28,69.75,69.75,0,0,1-.45-29.38,67.41,67.41,0,0,1,4.49-14.09,56.43,56.43,0,0,1,17.9-22.87c1-.68,2-1.4,3-2.06l3.16-1.79c1.06-.59,2.19-1,3.28-1.57s2.24-.92,3.4-1.28A48.71,48.71,0,0,1,68,15.12c9.9-.24,20,2.29,29.41,6.26-.56-.39-1.13-.77-1.7-1.14a113.63,113.63,0,0,1,19,9.69c1.48.95,3,1.92,4.36,3l2.12,1.58,1.07.79c.34.27.67.57,1,.85l2,1.73c.68.58,1.37,1.15,2,1.79l1.92,1.89a24.85,24.85,0,0,1,1.89,2A86,86,0,0,1,144.1,62a125.92,125.92,0,0,1,9.27,23.58c1.08,3,2.15,6.27,3.21,9.62s2.1,6.8,3,10.3c1.9,7,3.47,14.22,4.71,21,2.49,13.56,3.72,25.37,4.76,30.51.85,15,1,25.55,1,36,0,5.22,0,10.42-.12,16.15s-.3,12-.35,19.25c.2-1.87.31-1,.39,1a80.35,80.35,0,0,0,.58,8.09,8.66,8.66,0,0,0,.38,1.59l.07.16s0,0,0,0,0,0,0,0l-.19.1a7.05,7.05,0,0,0-.7.46,2.31,2.31,0,0,0-.45.32l-.2.21c-.05.06-.07.06-.11.11a.77.77,0,0,0-.16.25h0v0h0c-.31,2.15.43-2.94.35-2.41h.14l.23,0,.44,0,.8.09,1.21.11c.62,0,.82,0,.42-.09-.2-.06-.55-.13-1.07-.24l-.91-.18-.56-.1L170,238l-.16,0h-.15c-.19,1.27.41-2.85-.43,2.85,0,0,0,0,0,0h0l.06-.13a.79.79,0,0,1,.17-.19,3.42,3.42,0,0,1,.33-.33,2.8,2.8,0,0,1,.4-.27,5.09,5.09,0,0,1,.6-.39,4.5,4.5,0,0,1,.63-.3,1.19,1.19,0,0,0,.16-.08h0v0l-.13-.81a25.46,25.46,0,0,1-.16-2.55c0-1.75,0-3.4,0-4.89.11-3.05.19-5.48.27-7.82.18-4.73.38-9.13,1.12-17.41l-.25.49c1.06-19.36,1.59-38.91.48-58.56-.55-9.82-1.49-19.66-3-29.48-.74-4.91-1.61-9.82-2.64-14.71-.52-2.44-1.08-4.9-1.67-7.31s-1.16-4.75-1.77-7.15c-1.25-4.79-2.59-9.63-4.17-14.47A149.31,149.31,0,0,0,154.2,60,102,102,0,0,0,137,33.26a97.53,97.53,0,0,0-11.81-11.08A118.26,118.26,0,0,0,112,13.23a100.67,100.67,0,0,0-30.19-12A80.81,80.81,0,0,0,70.48,0,69.31,69.31,0,0,0,58.74.66,62.64,62.64,0,0,0,36.07,8.55,66,66,0,0,0,17.9,24.24,78.1,78.1,0,0,0,6,44.69,84.79,84.79,0,0,0,.42,67.54,82,82,0,0,0,.07,79.38c0,1,.1,2,.18,2.93l.26,2.91c.2,1.93.53,3.84.79,5.75,2.61,15.3,8.92,29.4,17,41.62A143.82,143.82,0,0,0,33,151.17a187.66,187.66,0,0,0,17.16,16c12,9.95,24.7,18.39,37.1,26.43,6.17,4,12.4,8,18.23,11.82a89.65,89.65,0,0,1,15.43,12.45c1.09,1.13,2.09,2.32,3,3.5a43.61,43.61,0,0,1,2.55,3.71,35.12,35.12,0,0,1,3.64,7.93,27.17,27.17,0,0,1,.94,4.07l.15,1,.09,1a8.65,8.65,0,0,1,0,1v.58c0,.29,0,.58-.05.88s0,.62-.26.81-.48.28-.74.4l-.42.15-.2.07-.14,0a87.09,87.09,0,0,0-15.38,7.75,73.35,73.35,0,0,0-12.39,9.84A74.18,74.18,0,0,0,90.56,276.3a70,70,0,0,0-6.76,19.12,71,71,0,0,0-1.3,10.36,76.89,76.89,0,0,0,.23,10.61A71.7,71.7,0,0,0,84.57,327c.18.88.48,1.75.72,2.62s.49,1.75.81,2.6l.36,1,.31.74c0,.12.14.25.12.36l-.34.22a7,7,0,0,0-.65.46l-.32.24-.77.63c-.74.6-1.45,1.22-2.13,1.88a52.28,52.28,0,0,0-7.4,8.55,61.05,61.05,0,0,0-9,20.31,69.76,69.76,0,0,0,3,42.58c-.42-1-.74-2-1-2.61a66.68,66.68,0,0,0,4.49,10c.78,1.58,1.72,3,2.62,4.49.46.72.89,1.46,1.36,2.17l1.47,2.05a90.86,90.86,0,0,0,13,14.54,109,109,0,0,0,33.71,20.29c-.05-.26,4,1.32,6.11,1.84a59.78,59.78,0,0,0,8.18,2.62c2.37.64,5.23,1.16,8.45,1.86l2.49.52,2.65.36,5.68.76c2,.33,4,.36,6.17.52s4.33.32,6.59.35c4.52-.06,9.28.07,14.16-.43l3.7-.28c.62-.06,1.24-.08,1.86-.16l1.87-.26,7.56-1.07c5-1,10.18-1.95,15.19-3.48,2.51-.71,5-1.35,7.49-2.27s4.93-1.68,7.35-2.59l7.08-3,1.75-.74,1.7-.84,3.35-1.66,3.3-1.65c1.09-.54,2.11-1.2,3.16-1.79l6.09-3.55,5.59-3.76,2.68-1.8c.85-.63,1.67-1.29,2.48-1.91l4.68-3.63c.76-.57,1.46-1.18,2.13-1.79l2-1.77,3.66-3.25a21.68,21.68,0,0,0,1.61-1.55l1.45-1.47,4.63-4.68c1.16-1.26,2-2.15,2.41-2.58.95-1.1,1.86-2.27,2.82-3.42s1.84-2.4,2.79-3.61a106.4,106.4,0,0,0,15.31-26.78,72.52,72.52,0,0,0,5-31,63.38,63.38,0,0,0-9.9-29.8,54.72,54.72,0,0,0-10.46-11.86l-1.53-1.27c-.51-.42-1.08-.78-1.61-1.16a34.68,34.68,0,0,0-3.34-2.17l-1.73-1-.87-.48-.22-.12-.08,0-.14-.07a6.62,6.62,0,0,1-1-.53l-.13-.94,0-.21-.17-.82c-.12-.54-.23-1.08-.37-1.62-.5-2.15-1.09-4.26-1.72-6.35a101.61,101.61,0,0,0-4.65-12.06,86,86,0,0,0-13.7-20.85l-1.48-1.56c-.49-.52-1.06-1-1.59-1.49l-3.25-3L254.56,252l-1.75-1.34L251,249.5A69.48,69.48,0,0,0,236.79,242a47,47,0,0,0-9.61-3.6c-1.43-.37-2.92-.74-4.74-1.11-.9-.21-1.89-.41-3-.62-.55-.12-1.14-.23-1.72-.33l-.83-.15c-1.2-.37-2.17-.6-3-.77l-.15,0h-.08s0-.06,0-.08l.23-.37.42-.69.74-1.19c.22-.35.43-.68.62-1a2.3,2.3,0,0,0,.15-.23l.21-.35.71-1.25c.91-1.64,1.74-3.08,2.46-4.33s1.28-2.3,1.75-3.13c1.88-3.29,1.41-3.24-1.79,1.8A232.77,232.77,0,0,1,256,175.26l4.56-4.73,4.72-4.56c1.55-1.55,3.21-3,4.85-4.46s3.24-3,5-4.36c5.74-4.85,9.28-7.14,12.68-8.89a127.24,127.24,0,0,1,13.76-9c3.07-1.66,6.22-3.45,15.17-7.95,1.12-.34,4.18-1.88,8.38-3.88l3.34-1.57.75-.35c.11-.06.21-.14.32-.19l.68-.34c.94-.49,2-1,3.12-1.53.13-.16.13,0,.16,0l.08.21.17.43.35.87c.27.61.53,1.22.78,1.82l.2.46.05.09.11.29.23.59c.3.78.6,1.55.9,2.3.6,1.5,1.2,2.93,1.78,4.28,2.31,5.4,4.32,9.43,4.93,10.9l-1.57-3.12c1.24,2.82,2.48,5.52,3.7,8.09l3.51,7.38a96.63,96.63,0,0,0,8.12,14.22c.8,1.13,1.63,2.24,2.5,3.32l1.25,1.55,1.26,1.52c1.74,2,3.57,4.08,5.6,6.06A68.43,68.43,0,0,0,382.05,196a54.91,54.91,0,0,0,13.48,5.6,32.35,32.35,0,0,0,3.72.82l1.89.35c.63.11,1.29.13,1.93.2,1.3.09,2.59.25,3.89.26l3.93-.12a49.31,49.31,0,0,0,15.21-3.63,55.19,55.19,0,0,0,13.06-7.82A71.72,71.72,0,0,0,454,175.37c.69-1,1.34-2.1,2-3.21.32-.58.69-1.22.95-1.74l.79-1.59c.52-1.06,1.06-2.11,1.56-3.18l1.38-3.25.69-1.63.6-1.66,1.19-3.32a101.24,101.24,0,0,0,3.38-13.63,99.09,99.09,0,0,0-5.75-54.46,100,100,0,0,0-32.09-41.33c-.32.15.28.78,1.34,1.65s2.51,2.12,4,3.36c2.95,2.55,5.83,5.47,5.48,6.35l-1.27-1.35-1.34-1.27-2.69-2.55c-1.89-1.6-3.71-3.28-5.7-4.76a100.72,100.72,0,0,0-12.36-8.31,103.66,103.66,0,0,0-13.59-6.44c-1.18-.44-2.38-.84-3.57-1.26l-1.8-.61-1.81-.52-3.64-1-3.69-.82-1.84-.41-1.86-.31-3.72-.6-3.74-.41L375,26.9l-1.87-.11-3.75-.19-3.75,0c-1.25,0-2.49,0-3.73.09s-2.49.1-3.74.18a121,121,0,0,0-29,5.85c-1.71.5-3.52,1-5.29,1.59s-3.56,1.11-5.19,1.71c-3.3,1.12-6.08,2.23-7.63,2.76s-2.52,1.18-3.47,1.65-1.67.88-2.28,1.22a19.82,19.82,0,0,0-2.44,1.58A41.48,41.48,0,0,1,297.08,47l-1.64-.3c-5.42,4-9.55,6.6-13.54,9.27a72.23,72.23,0,0,0-12.22,9.79,11.82,11.82,0,0,1-2.17,2.64c-1.19,1.28-2.79,2.83-4.31,4.39-.48-.33-2.81,2.1-5,4.5s-4.17,4.79-4.36,4.2l0,.15c-1.69,2-2.83,3.43-5,5.74-.68,1-2.9,4.14-5.69,8.36s-6.17,9.59-9.42,15c-6.49,10.83-12.11,22.05-13.13,24.28l-1.28,1.88c-3.35,5.85-4,8.81-2,5.43l-4,7.26.39-.87c-1.33,2.4-2.52,4.87-3.79,7.3-.76,1.31-1.92,2.64-1.25.35-.91,2.16-1.83,4.47-2.82,6.74s-2.06,4.51-3,6.62c1.42-2.91,3.06-5.94,4.71-9.07s3.53-6.27,5.35-9.45,3.85-6.27,5.8-9.32,4-6,5.95-8.7c-1.32,2.45-3.26,5.82-5.33,9.19s-4,6.89-5.35,9.58c-1.91,3.05-4.72,7.77-7.47,13.14-.69,1.33-1.41,2.7-2.12,4.08s-1.36,2.81-2,4.21c-1.34,2.82-2.7,5.58-3.82,8.23a36.9,36.9,0,0,0-1,3.72,35.32,35.32,0,0,1-2.14,5.81c-1.52,2.39-2.22,6.06-4.18,10.39.7-2.65,1.63-5.19,2.53-7.75s1.88-5.11,2.94-7.67c-.53.29-1.9,3.38-3.21,7s-2.79,7.54-3.5,9.62c-.21,1-1.19,4.05-2.35,7.64s-2.26,7.8-3.11,11c.11-1.5-.34-.23-1,1.89s-1.35,5.12-2,7l-.38,1.56a1.82,1.82,0,0,0-.14.19c-.12.1-.05.31,0,.45s.13.45.22.29c.14.22.16,0,.35-.34l.2-.24a.63.63,0,0,0,.11-.18l.19-.68c.25-.92.52-1.9.77-2.83.51-1.88,1-3.6,1.3-4.47s.42-.86.19.72a38.06,38.06,0,0,0-1.39,4.68c-.15.56-.3,1.15-.45,1.75-.07.3-.15.61-.23.92a2.56,2.56,0,0,1-.13.3,2.55,2.55,0,0,0-.29,1.19l-.41.27a1,1,0,0,1-.2.11h-.21c.13.44,1.22-.11.33.53l-.41,0a6,6,0,0,0-.73,0l-1.4.11a35.73,35.73,0,0,0-7.55,1.58c-1.08.34-2.1.75-2.66.9a18.18,18.18,0,0,1,2.19-.92,29.54,29.54,0,0,1,3-.85c-1.48.38-.93.13.87-.38a32.69,32.69,0,0,1,3.53-.73l1.12-.15.55-.06.18,0c.22,0,.45-.09.68-.12s.35,0,.49-.12l.4-.38,0-.64c0-.23.07-.32.1-.48l0-.1,0-.06a.72.72,0,0,1,0-.11l.17-.92c.12-.61.23-1.22.34-1.81.44-2.38.82-4.58,1.17-6.31.71-3.45,1-5.07.41-2.65.23-.5-.16,1.37-.76,4.47-.29,1.56-.63,3.42-1,5.45-.1.51-.2,1-.3,1.55l0,.19V232l0,.08-.06.18c-.14.2,0,.63,0,1l-.4.36c-.13.12-.32.05-.49.1l-.47.06-.24,0-.14,0-.45,0a32.19,32.19,0,0,0-3.46.53,28.73,28.73,0,0,0-5.76,1.76c-.76.32-1.41.65-1.71.8l-.13.07s0-.05,0,0l.25.72c.15.46.29,1,.35,1.17a10.82,10.82,0,0,1,.26,1.15,1.82,1.82,0,0,1,0,.32c0,.12,0,.11,0,.16s0,.08,0,.12v0l.55-3.75h-.35l.06,0,.11,0h.17l-.54,3.69a5.07,5.07,0,0,0-.31-1.88l0-.15-.08-.29-.17-.56c-.1-.32-.28-.84-.23-.68s0,0,0,0,.16,0,.17,0-.06.09-.09.13-.07.07,0,.07h0l.05.15.19.6.16.58.11.32c.12.43.19.95.23,1.08s0,.22,0,.32v.14s0,.07,0,.1v0c-.1.7.89-6.1.47-3.22h0s-.07,0-.07,0,0,0,.07,0h0l-.45,3.12h0v-.06a.48.48,0,0,0,0-.17,2.41,2.41,0,0,0-.05-.5c0-.05-.05-.3-.09-.49s-.1-.41-.17-.63l-.06-.16-.09-.32-.2-.66h0l.18-.06c.55-.3,1.48-.77,2.34-1.13a24.66,24.66,0,0,1,2.68-1,26.9,26.9,0,0,1,4.26-.57c.58,0,1.1,0,1.54,0h.31l.14,0,.22,0c.54.17.68.35.14.46h-.58c-.27,0-.47,0-.6,0s-.24,0,0-.11c.78-.14,1.21-.29,2-.4.23-.06.51,0,.74-.14l.65-.59,0-.75,0-.37.07-.31.15-.64c.09-.52.19-1,.28-1.55.37-2.06.73-4,1-5.56.57-3.1.91-4.58.31-2.16l1.11-3.28c-.39,1.78-1.22,5-2,8.23-.2.81-.4,1.62-.6,2.4l-.3,1.16a4.25,4.25,0,0,1-.25.84c-.12.22-.25.4-.34.59a4,4,0,0,1-.17.52.55.55,0,0,1,.1.31,1.18,1.18,0,0,1-1.13.61l-.85.06-.94.09-1.32.16c-.54,0-1.08.09-1.62.16a38.15,38.15,0,0,0-3.71.89,24.57,24.57,0,0,0-3.24,1.23c-.39.17-.7.32-.78.37s-.14-.39.27,1l.1.34a.93.93,0,0,0,.06.18l.09.3a4.68,4.68,0,0,1,.11.5c0,.32.07.34.07.37s0,0,0-.15a6.06,6.06,0,0,0-.26-1.08,2.11,2.11,0,0,1-.09-.29l-.11-.39-.13-.42,0-.11h0s0,0,.06,0l.85-.35c.34-.15.7-.29,1.06-.42a20.08,20.08,0,0,1,2-.64,19.8,19.8,0,0,1,2.84-.58c1.43-.18,2-.11,2,0,0,.29-2.12.93-4.2,1.94a18.3,18.3,0,0,0-2.73,1.59c-.69.51-1,.82-1,1s.36.19,1.55-.22a34.48,34.48,0,0,1,6.12-1.45c-1.88.17-3,.37-3.39.39s-.22-.11.49-.34a22.27,22.27,0,0,1,3.4-.76c.75-.11,1.62-.2,2.48-.26.67,0,1.38-.06,2.11,0l.71,0c.23,0,.49.11.68-.09l1.26-.77c.14-.53.29-1.06.43-1.6l.48-1.53a6.34,6.34,0,0,0,.57-1.21c.25-.64.57-1.48.95-2.51s.8-2.27,1.29-3.67l1.71-4.71c1.94-6.11.9-3.69,1.08-4.91.31-.84.7-1.86,1.09-2.91l1.27-3c.8-1.87,1.45-3.2,1.51-2.71a32.72,32.72,0,0,1,2.23-6.22,69.39,69.39,0,0,0,2.94-6.75c1.7-5-.37.23.75-3.36l2.58-5.88c.92-2.06,1.83-4.21,2.83-6.26,2-4.11,3.82-8.06,5.32-10.83,1.55-2,5.74-8.14,4-2.95-5.51,10.62.88-4.68-4.59,6.53,3.41-4.31-4.49,10.08-4.55,12.54,1-1.72,2.43-4.36,3.92-7.35.72-1.51,1.49-3.09,2.25-4.67l2.3-4.65-.75,1.12c2.44-5.39,7.95-15.89,11.79-21-.36,1.53,1.33-.71-.75,3.09l2.08-3.49,2.16-3.43c.42-.95.84-1.94-.47,0a45.32,45.32,0,0,1,2.8-4.9c1-1.49,2-2.85,2.95-4,.42-.26,5.91-9.55,11.73-18.36s11.94-17.11,11.66-16.49c.94-1.13,1.74-2,2.46-2.78s1.4-1.37,2-2a41.15,41.15,0,0,0,4.24-4.86,12.22,12.22,0,0,0-1.54,1.6l-4,4.73c-1.6,2-3.43,4.34-5.36,6.83s-3.88,5.2-5.77,7.89c-7.67,10.65-13.88,21.16-11.82,17.89,1.57-2,10.45-16,20.58-28.91a227.08,227.08,0,0,1,14.73-17.33c4.39-4.59,7.79-7.59,8.63-8,1.64-1.43,3.41-3,4.69-4.2s2-2,1.41-1.87c6-4.3-1.07,2.18,3.39-.57,0-.15-.52,0,.82-1,1.46-.82,3-1.59,4.45-2.34A72.9,72.9,0,0,1,305,60.23c2.83-1.74,5.88-3.46,9-5.08,6.27-3.28,12.7-6.11,18.11-8.62-3,1.75-6.3,4.09-12.78,7.87l-1.32.29c-.9.64-6.32,3.72-5.86,4.17,6.51-3.1,11.84-5.82,18.62-9,1.33-.37,2.92-.68,4-.89-.05-.07-.18-.09-.18-.18,2.41-.44,2.18-.3,1.42.2a2.76,2.76,0,0,1-.44.29c2.36.14,8.77-2.25,16.52-3.89l2.94-.62c1-.18,2-.33,3-.5,2-.37,4.07-.52,6.08-.72s4-.2,5.82-.19a46.87,46.87,0,0,1,5.18.4c1.87,0,2,0,2.18-.1a3.07,3.07,0,0,1,.64-.09,17.5,17.5,0,0,1,2.24.06A85.39,85.39,0,0,1,397,48.43a91.34,91.34,0,0,1,15.66,8.28c3.94,1.74,4.47,1.7.45-1.79,1.45.91,2.83,1.95,4.25,2.91s2.72,2.09,4.05,3.17c-2.15-1-2.34-.71-1.57.22.4.45,1,1.13,1.7,1.87s1.54,1.55,2.3,2.41L426,68a12.62,12.62,0,0,1,1.37,1.93c.52.95.15,1.08-1.9-.35.42.6,1,1.31,1.67,2.1l1.1,1.24,1.16,1.39c.8,1,1.71,1.94,2.55,3s1.81,2.1,2.62,3.2a3.39,3.39,0,0,1,1.68,1,22.74,22.74,0,0,1,3.89,5.37l1.31,2.84c.38.8.62,1.5.86,2.08.47,1.19.82,2,1.09,2.75s.49,1.51.82,2.51.69,2.32,1.18,4.25c0,2-1.14-.72-1.5-.24A27.84,27.84,0,0,1,446.37,112c0,2.59,0,5,.37,10.68a85.22,85.22,0,0,1-.16,13.28c-.05,1.12-.21,2.17-.3,3.14s-.16,1.84-.23,2.59c-.17,1.48-.18,2.45.06,2.6a28.55,28.55,0,0,1-.83,3.09c-.27.89-.51,1.64-.73,2.28a14.62,14.62,0,0,1-1.22,2.51C442.71,153.11,442.42,152.74,442.18,152.15Z"/></g></g></svg>