<svg xmlns="http://www.w3.org/2000/svg" viewBox="0 0 119.87 121.47"><defs><style>.cls-1{fill:#fff;}</style></defs><g id="Layer_2" data-name="Layer 2"><g id="Layer_1-2" data-name="Layer 1"><path class="cls-1" d="M43.34,62c.28,0,.65-.36,1.93-.58a8.06,8.06,0,0,1,2-.08l.48-.29A97.65,97.65,0,0,1,65.63,26.26c6.65-8.18,11.71-11.17,15.65-13.16,6.12-3.1,13.36-4.37,20-2.47a22.39,22.39,0,0,1,13.69,31.82c-.8,1.54-4,6.48-9.4,7-5.74.59-10.22-4.31-11.53-5.74a25.57,25.57,0,0,1-3.83-6,46.39,46.39,0,0,1-3.41-8.55A61.92,61.92,0,0,0,71.28,38,63.19,63.19,0,0,0,52.89,61.38a20,20,0,0,1,9.87,3c7.52,4.78,9,13.1,9.2,14.54,5.17,1.93,8.2,7.77,8,13.29S76.8,102.88,73,106.93a38.56,38.56,0,0,1-36.73,10.92c-7-1.73-13.77-5.84-16.94-12.32s-1.63-15.43,4.51-19.2A16.8,16.8,0,0,1,34.57,63.22l.27-.3a9.6,9.6,0,0,0-2.22-7.41,27.44,27.44,0,0,0-6-5.18c-5.43-3.81-11-7.56-15.54-12.4S3,27,2.61,20.34,5.45,6.65,11.44,3.78c8.66-4.16,18,2.81,19.11,3.69,6.52,4.9,8.53,12,10.07,17.7C45.27,42.47,41.47,61.75,43.34,62Z"/><path class="cls-1" d="M44,64.51c5.59-1.34,5.57-1,7.58-7.06A97.29,97.29,0,0,1,60.52,38C66,29,72.94,20.08,82.58,15.32c7.49-3.69,16.6-4.37,23.72.54a20,20,0,0,1,7.9,21.29c-1.67,6.76-7.83,12.6-14.8,8-5.5-3.63-8.34-10.64-10.15-16.67-.37-1.21-1.85-2.33-3.17-1.79A66.14,66.14,0,0,0,50.67,60.09,2.61,2.61,0,0,0,52.89,64a17.34,17.34,0,0,1,14.46,9.26c1.12,2.1,1.21,5.84,2.79,7.56,1.75,1.91,4.15,2.25,5.61,4.78a12.93,12.93,0,0,1,1.15,9.69c-1.43,5.88-5.93,10.89-10.75,14.33-8.89,6.34-20.79,8.56-31.24,5.19C29.52,113,24,109.56,21.6,104.23S20.2,92,25.18,88.55a2.62,2.62,0,0,0,1.18-2.91c-1.91-4.84-1.93-10.14,1.23-14.52a14.67,14.67,0,0,1,5.59-4.65c1-.44,2.57-.65,3.34-1.58,3.83-4.63-2.09-11.74-5.51-14.5-7-5.67-15.17-9.9-20.68-17.3C5.22,26.22,2.6,16.1,8.82,9c5.4-6.18,13.92-4,19.76.21,6.47,4.7,8.83,12.66,10.38,20.14,1.67,8.08,1.65,16.38,1.38,24.59C40.26,56.55,39,62.63,42,64.25s5.52-2.88,2.6-4.45c1.33.72.41,1.05.71-.43a18.71,18.71,0,0,0,.06-3.18c.09-3,.22-6.08.22-9.12A88.21,88.21,0,0,0,42.94,23.9C40.09,13.31,34.22,4.17,23.27.83,11-2.92.22,6.49,0,18.92c-.25,14.65,12.45,24.61,23.26,32.2a47,47,0,0,1,5.91,4.47c.7.67,3.92,4.87,3.53,5.63-.23.44-3.35,1.48-4,1.9A19.33,19.33,0,0,0,21.4,87l1.18-2.91C14.14,90,13.07,101.76,19,109.86c6.67,9.06,19,12.49,29.82,11.42,11.46-1.14,22.68-7,29.26-16.59,3.09-4.51,5-10,4.2-15.55s-3.79-8.4-7.8-11.84c-.14-.12.26,1-.17.43-.18-.24-.14-.85-.24-1.14-.41-1.1-.66-2.25-1.1-3.35A24.43,24.43,0,0,0,69.35,67a22.6,22.6,0,0,0-16.46-8.14l2.22,3.87a61,61,0,0,1,32.34-31l-3.17-1.8c2.81,9.33,9.41,23.06,21.25,22.2,12.49-.9,16.36-17.28,13.4-27.12C115.12,12.28,102.25,5.49,89.55,7.65,77.46,9.72,68.23,18.38,61.15,27.86a95.45,95.45,0,0,0-10,16.89,110.32,110.32,0,0,0-4.5,11.33A19.39,19.39,0,0,0,46,58.82c-.47.64,1.68-1-.18,0a16.87,16.87,0,0,1-3.19.72C39.43,60.32,40.8,65.28,44,64.51Z"/></g></g></svg>